<mxfile host="app.diagrams.net" modified="2023-07-29T09:15:27.870Z" agent="Mozilla/5.0 (X11; Linux x86_64; rv:109.0) Gecko/20100101 Firefox/113.0" version="21.6.6" etag="vEyPKhi42nzo0PO4m3Du" type="github">
  <diagram name="Page-1" id="kWoBdqmQHItqwh2Jipqj">
    <mxGraphModel>
      <root>
        <mxCell id="0" />
        <mxCell id="1" parent="0" />
      </root>
    </mxGraphModel>
  </diagram>
</mxfile>
